# xmcd
#
# Track frame offsets:
#	182
#	19620
#	36262
#	51675
#	67830
#	86717
#	102265
#	118377
#	137185
#	153622
#	167572
#	183387
#
# Disc length: 2704 seconds
#
# Revision: 4
# Processed by: cddbd v1.5.1PL2 Copyright (c) Steve Scherf et al.
# Submitted via: dBpowerAMP V4.0
#
DISCID=a90a8e0c
DTITLE=Trisha Yearwood - Inside Out
DYEAR=2001
DGENRE=country
TTITLE0=Love Alone
TTITLE1=I Would've Loved You Anyway
TTITLE2=For A While
TTITLE3=Seven Year Ache
TTITLE4=I Don't Paint Myself Into Corners
TTITLE5=Harmless Heart
TTITLE6=Inside Out
TTITLE7=Love Let Go
TTITLE8=Melancholy Blue
TTITLE9=Second Chance
TTITLE10=Love Me Or Leave Me Alone
TTITLE11=When We Were Still In Love
EXTD=
EXTT0=
EXTT1=
EXTT2=
EXTT3=
EXTT4=
EXTT5=
EXTT6=
EXTT7=
EXTT8=
EXTT9=
EXTT10=
EXTT11=
PLAYORDER=
